<svg xmlns="http://www.w3.org/2000/svg" viewBox="0 0 94.72 154.03"><defs><style>.cls-1{opacity:0.15;}.cls-2{fill:#22ac39;}.cls-3{fill:#f4d62b;}.cls-4{fill:#e83b47;}.cls-5{fill:#3ca1ca;}.cls-5,.cls-7{stroke:#29627e;stroke-miterlimit:10;stroke-width:3px;}.cls-6{fill:#fff;stroke:#fff;stroke-linecap:round;stroke-linejoin:round;stroke-width:1.27px;}.cls-7{fill:none;}</style></defs><g id="BAD"><path class="cls-2" d="M7.43,148.46c-19.89-19,6.27-39.51,8-60.81C17.19,65.73-3,60.5,2.56,32.22,9.6-3.91,50.08-3.21,67.71,3.78c14.14,5.6,33.34,20.43,25,71.94S29.62,169.62,7.43,148.46Z"/><path class="cls-3" d="M65.19,42.57a9,9,0,1,1-9-9A9,9,0,0,1,65.19,42.57Z"/><path class="cls-4" d="M60.62,42.57a4.39,4.39,0,1,1-4.39-4.4A4.4,4.4,0,0,1,60.62,42.57Z"/><path d="M57.54,42.57a1.32,1.32,0,1,1-1.31-1.32A1.31,1.31,0,0,1,57.54,42.57Z"/><path class="cls-3" d="M46,43.88a9,9,0,1,1-9-9A9,9,0,0,1,46,43.88Z"/><path class="cls-4" d="M41.39,43.88A4.4,4.4,0,1,1,37,39.49,4.39,4.39,0,0,1,41.39,43.88Z"/><path d="M38.31,43.88A1.32,1.32,0,1,1,37,42.57,1.32,1.32,0,0,1,38.31,43.88Z"/><path class="cls-3" d="M54.91,26a9,9,0,1,1-9-9A9,9,0,0,1,54.91,26Z"/><path class="cls-4" d="M50.34,26A4.39,4.39,0,1,1,46,21.57,4.38,4.38,0,0,1,50.34,26Z"/><path d="M47.27,26A1.32,1.32,0,1,1,46,24.65,1.32,1.32,0,0,1,47.27,26Z"/><path class="cls-5" d="M37,61.58A5.77,5.77,0,0,0,33,65c-.86,1.86-1.71,2.81-3.67,3.31-1.59.4-3.4,1-3.7,2.85a4.32,4.32,0,0,0,2.62,5C30.06,77,32.44,77.74,34,79c2.16,1.77,1.16,5,2.56,7.2s4.49,2.73,7,2.61c2.79-.14,4.65-1.2,7.12-2.27s4.18.87,6.23,1.75c2.49,1.07,5.47,1.14,7.23-1.26,1.07-1.45,1-3.76,2.88-4.48,2.57-1,5,1.11,7.52.35s2.63-3.66,1.22-5.34c-1.22-1.44-3.91-3.65-1.81-5.53,1.63-1.45,3.94-1.76,5.16-3.73A4.77,4.77,0,0,0,78.67,63a7.37,7.37,0,0,0-4.37-2.85c-2.34-.52-4.16.43-6.28,1.23-1.91.72-4.47.77-4.77-1.77s-3.35-2.42-5.31-2a8.71,8.71,0,0,0-5.45,4.29c-1.19,2-2.47,3-5,2.43-1.74-.38-3.37-1.85-4.92-2.75-1.75-1-3.77-.53-5.59,0Z"/><path class="cls-6" d="M43.33,62,41.56,73.8,35.68,62.1A5.61,5.61,0,0,1,39.28,61,11.1,11.1,0,0,1,43.33,62Z"/><path class="cls-6" d="M52.49,61.87l.15,11.3L47.51,64.3a4.44,4.44,0,0,0,2.57-.4A6.9,6.9,0,0,0,52.49,61.87Z"/><path class="cls-6" d="M64.35,61.41l-2,8.85L57.94,57.58a3.77,3.77,0,0,1,3.2,0C63.23,58.31,64.35,61.41,64.35,61.41Z"/><path class="cls-6" d="M72.11,60.13,69.28,69,68,61.34a18.24,18.24,0,0,1,2.26-.86A9.35,9.35,0,0,1,72.11,60.13Z"/><path class="cls-6" d="M41.56,88.76,38.31,78.61,37,86.79a2.76,2.76,0,0,0,1.79,1.3A19.65,19.65,0,0,0,41.56,88.76Z"/><path class="cls-6" d="M50.66,86.53l-3.39-7.92V88a2.76,2.76,0,0,0,1.93-.24A2.9,2.9,0,0,0,50.66,86.53Z"/><path class="cls-6" d="M63.45,87.76l-5.91-11.7-1.67,11.7A7.44,7.44,0,0,0,60,89,6,6,0,0,0,63.45,87.76Z"/><path class="cls-6" d="M69.76,82.41l-2.6-7.34-1.5,8.62s-.33-.57,1.8-1.16S69.76,82.41,69.76,82.41Z"/><path class="cls-7" d="M37,61.58A5.77,5.77,0,0,0,33,65c-.86,1.86-1.71,2.81-3.67,3.31-1.59.4-3.4,1-3.7,2.85a4.32,4.32,0,0,0,2.62,5C30.06,77,32.44,77.74,34,79c2.16,1.77,1.16,5,2.56,7.2s4.49,2.73,7,2.61c2.79-.14,4.65-1.2,7.12-2.27s4.18.87,6.23,1.75c2.49,1.07,5.47,1.14,7.23-1.26,1.07-1.45,1-3.76,2.88-4.48,2.57-1,5,1.11,7.52.35s2.63-3.66,1.22-5.34c-1.22-1.44-3.91-3.65-1.81-5.53,1.63-1.45,3.94-1.76,5.16-3.73A4.77,4.77,0,0,0,78.67,63a7.37,7.37,0,0,0-4.37-2.85c-2.34-.52-4.16.43-6.28,1.23-1.91.72-4.47.77-4.77-1.77s-3.35-2.42-5.31-2a8.71,8.71,0,0,0-5.45,4.29c-1.19,2-2.47,3-5,2.43-1.74-.38-3.37-1.85-4.92-2.75-1.75-1-3.77-.53-5.59,0Z"/></g></svg>