<?xml version="1.0" encoding="utf-8"?>
<!-- Generator: Adobe Illustrator 24.1.0, SVG Export Plug-In . SVG Version: 6.00 Build 0)  -->
<svg version="1.1" id="Layer_1" xmlns="http://www.w3.org/2000/svg" xmlns:xlink="http://www.w3.org/1999/xlink" x="0px" y="0px"
	 viewBox="0 0 58.8 94.1" style="enable-background:new 0 0 58.8 94.1;" xml:space="preserve">
<style type="text/css">
	.st0{fill:#22AC39;}
	.st1{fill:#F4D62B;}
	.st2{fill:#E83B47;}
	.st3{fill:#3CA1CA;stroke:#29627E;stroke-width:1.8203;stroke-miterlimit:10;}
	.st4{fill:#FFFFFF;stroke:#FFFFFF;stroke-width:0.7706;stroke-linecap:round;stroke-linejoin:round;}
	.st5{fill:none;stroke:#29627E;stroke-width:1.8203;stroke-miterlimit:10;}
</style>
<g id="BAD">
	<path class="st0" d="M4.5,90.1c-12.1-11.5,3.8-24,4.9-36.9c1.1-13.3-11.2-16.5-7.8-33.6C5.8-2.4,30.4-1.9,41.1,2.3
		c8.6,3.4,20.2,12.4,15.2,43.7S18,102.9,4.5,90.1z"/>
	<path class="st1" d="M39.6,25.8c0,3-2.4,5.5-5.5,5.5c-3,0-5.5-2.4-5.5-5.5s2.4-5.5,5.5-5.5C37.1,20.4,39.6,22.8,39.6,25.8z"/>
	<path class="st2" d="M36.8,25.8c0,1.5-1.2,2.7-2.7,2.7c-1.5,0-2.7-1.2-2.7-2.7c0-1.5,1.2-2.7,2.7-2.7
		C35.6,23.2,36.8,24.4,36.8,25.8z"/>
	<path d="M34.9,25.8c0,0.4-0.4,0.8-0.8,0.8c-0.4,0-0.8-0.4-0.8-0.8c0-0.4,0.4-0.8,0.8-0.8c0,0,0,0,0,0C34.6,25,34.9,25.4,34.9,25.8
		C34.9,25.8,34.9,25.8,34.9,25.8z"/>
	<path class="st1" d="M27.9,26.6c0,3-2.4,5.5-5.5,5.5S17,29.6,17,26.6s2.4-5.5,5.5-5.5l0,0C25.5,21.2,27.9,23.6,27.9,26.6z"/>
	<path class="st2" d="M25.1,26.6c0,1.5-1.2,2.7-2.7,2.7c-1.5,0-2.7-1.2-2.7-2.7c0-1.5,1.2-2.7,2.7-2.7c0,0,0,0,0,0
		C23.9,24,25.1,25.2,25.1,26.6z"/>
	<path d="M23.2,26.6c0,0.4-0.4,0.8-0.8,0.8c-0.4,0-0.8-0.4-0.8-0.8c0-0.4,0.4-0.8,0.8-0.8c0,0,0,0,0,0
		C22.9,25.8,23.2,26.2,23.2,26.6z"/>
	<path class="st1" d="M33.3,15.8c0,3-2.4,5.5-5.5,5.5s-5.5-2.4-5.5-5.5s2.4-5.5,5.5-5.5S33.3,12.8,33.3,15.8z"/>
	<path class="st2" d="M30.5,15.8c0,1.5-1.2,2.7-2.7,2.6c-1.5,0-2.7-1.2-2.6-2.7s1.2-2.7,2.7-2.6c0,0,0,0,0,0
		C29.4,13.1,30.6,14.3,30.5,15.8C30.5,15.8,30.5,15.8,30.5,15.8z"/>
	<path d="M28.7,15.8c0,0.4-0.4,0.8-0.8,0.8c-0.4,0-0.8-0.4-0.8-0.8c0-0.4,0.4-0.8,0.8-0.8c0,0,0,0,0,0C28.3,15,28.7,15.3,28.7,15.8z
		"/>
	<path class="st3" d="M22.5,37.4c-1.1,0.3-2,1-2.4,2.1c-0.5,1.1-1,1.7-2.2,2c-1,0.2-2.1,0.6-2.2,1.7c-0.3,1.3,0.4,2.6,1.6,3
		c1.1,0.5,2.5,1,3.5,1.7c1.3,1.1,0.7,3,1.6,4.4c0.8,1.3,2.7,1.7,4.2,1.6c1.7-0.1,2.8-0.7,4.3-1.4c1.5-0.6,2.5,0.5,3.8,1.1
		c1.5,0.6,3.3,0.7,4.4-0.8c0.6-0.9,0.6-2.3,1.7-2.7c1.6-0.6,3,0.7,4.6,0.2c1.5-0.5,1.6-2.2,0.7-3.2c-0.7-0.9-2.4-2.2-1.1-3.4
		c1-0.9,2.4-1.1,3.1-2.3c0.6-1,0.5-2.3-0.3-3.2c-0.6-0.9-1.6-1.5-2.7-1.7c-1.4-0.3-2.5,0.3-3.8,0.7c-1.2,0.4-2.7,0.5-2.9-1.1
		c-0.2-1.5-2-1.5-3.2-1.2c-1.4,0.4-2.6,1.3-3.3,2.6c-0.7,1.2-1.5,1.8-3,1.5c-1.1-0.2-2-1.1-3-1.7C24.8,36.8,23.5,37,22.5,37.4
		L22.5,37.4z"/>
	<path class="st4" d="M26.3,37.6l-1.1,7.2l-3.6-7.1c0.6-0.5,1.4-0.7,2.2-0.7C24.7,37.1,25.5,37.3,26.3,37.6z"/>
	<path class="st4" d="M31.9,37.5l0.1,6.9L28.8,39c0.5,0.1,1.1,0,1.6-0.2C31,38.5,31.5,38.1,31.9,37.5z"/>
	<path class="st4" d="M39,37.3l-1.2,5.4l-2.7-7.7c0.6-0.3,1.3-0.3,1.9,0C38.4,35.4,39,37.3,39,37.3z"/>
	<path class="st4" d="M43.8,36.5L42,41.9l-0.8-4.6c0.4-0.2,0.9-0.4,1.4-0.5C43,36.6,43.4,36.5,43.8,36.5z"/>
	<path class="st4" d="M25.2,53.9l-2-6.2l-0.8,5c0.2,0.4,0.6,0.7,1.1,0.8C24.1,53.6,24.6,53.8,25.2,53.9z"/>
	<path class="st4" d="M30.7,52.5l-2.1-4.8v5.7c0.4,0.1,0.8,0,1.2-0.1C30.2,53.1,30.5,52.8,30.7,52.5z"/>
	<path class="st4" d="M38.5,53.3l-3.6-7.1l-1,7.1c0.7,0.5,1.6,0.8,2.5,0.8C37.2,54,37.9,53.7,38.5,53.3z"/>
	<path class="st4" d="M42.3,50l-1.6-4.5l-0.9,5.2c0,0-0.2-0.3,1.1-0.7C42.2,49.7,42.3,50,42.3,50z"/>
	<path class="st5" d="M22.5,37.4c-1.1,0.3-2,1-2.4,2.1c-0.5,1.1-1,1.7-2.2,2c-1,0.2-2.1,0.6-2.2,1.7c-0.3,1.3,0.4,2.6,1.6,3
		c1.1,0.5,2.5,1,3.5,1.7c1.3,1.1,0.7,3,1.6,4.4c0.8,1.3,2.7,1.7,4.2,1.6c1.7-0.1,2.8-0.7,4.3-1.4c1.5-0.6,2.5,0.5,3.8,1.1
		c1.5,0.6,3.3,0.7,4.4-0.8c0.6-0.9,0.6-2.3,1.7-2.7c1.6-0.6,3,0.7,4.6,0.2c1.5-0.5,1.6-2.2,0.7-3.2c-0.7-0.9-2.4-2.2-1.1-3.4
		c1-0.9,2.4-1.1,3.1-2.3c0.6-1,0.5-2.3-0.3-3.2c-0.6-0.9-1.6-1.5-2.7-1.7c-1.4-0.3-2.5,0.3-3.8,0.7c-1.2,0.4-2.7,0.5-2.9-1.1
		c-0.2-1.5-2-1.5-3.2-1.2c-1.4,0.4-2.6,1.3-3.3,2.6c-0.7,1.2-1.5,1.8-3,1.5c-1.1-0.2-2-1.1-3-1.7C24.8,36.8,23.5,37,22.5,37.4
		L22.5,37.4z"/>
</g>
</svg>
