<?xml version="1.0" encoding="utf-8"?>
<!-- Generator: Adobe Illustrator 24.1.0, SVG Export Plug-In . SVG Version: 6.00 Build 0)  -->
<svg version="1.1" id="Layer_1" xmlns="http://www.w3.org/2000/svg" xmlns:xlink="http://www.w3.org/1999/xlink" x="0px" y="0px"
	 viewBox="0 0 104.9 114.1" style="enable-background:new 0 0 104.9 114.1;" xml:space="preserve">
<style type="text/css">
	.st0{fill:#BCD400;}
	.st1{fill:#EC6514;stroke:#EC6514;stroke-width:0.7345;stroke-miterlimit:10;}
	.st2{fill:#DA2877;stroke:#DA2877;stroke-width:0.7345;stroke-miterlimit:10;}
	.st3{fill:#29627E;}
	.st4{fill:#FFFFFF;}
	.st5{fill:none;stroke:#DA2677;stroke-width:2.938;stroke-linecap:round;stroke-linejoin:round;}
</style>
<g id="BAD">
	<path class="st0" d="M12.7,36.3C0.4,37.1-0.5,86.7,9.1,98.9C19.4,112,67,113.6,82.3,99.6c9.8-9,9-62.3-4.4-62.9
		C66.1,36.2,68.3,55.8,61,61.6c-4.7,3.7-24.5,4.2-30.3,0.2C23.4,56.9,24.9,35.6,12.7,36.3z"/>
	<path class="st1" d="M76.5,41.5c-3.6,0-2.4-8.8,2-15.1c2.8-4.1,6.3-7.8,10.3-10.8l1.1,2.1c0,0-3.5,1.5-9.5,9.7
		C76.7,32.7,79.4,41.5,76.5,41.5z"/>
	<path class="st1" d="M103.9,10.9c0.8,4.4-2.2,8.5-6.6,9.3c-4.4,0.8-8.5-2.2-9.3-6.6c-0.8-4.4,2.2-8.5,6.6-9.3
		c0.9-0.2,1.8-0.2,2.7,0C100.7,4.9,103.3,7.6,103.9,10.9z"/>
	<path class="st2" d="M100.8,11.3c0.5,2.6-1.2,5.2-3.8,5.7s-5.2-1.2-5.7-3.8S92.4,8,95,7.5c0.6-0.1,1.3-0.1,1.9,0
		C98.9,7.9,100.4,9.4,100.8,11.3z"/>
	<path d="M98.4,12.5c0,0.8-0.6,1.4-1.4,1.4c-0.8,0-1.4-0.6-1.4-1.4c0-0.7,0.6-1.4,1.4-1.4C97.8,11.2,98.4,11.8,98.4,12.5
		C98.4,12.5,98.4,12.5,98.4,12.5z"/>
	<path class="st1" d="M16.3,43.4c-3.6,0-2.4-8.8,2-15.1c2.9-4.1,6.4-7.8,10.4-10.8l1.1,2.1c0,0-3.5,1.5-9.5,9.7
		C16.5,34.6,19.2,43.4,16.3,43.4z"/>
	<path class="st1" d="M43.7,12.8c0.7,4.4-2.2,8.5-6.6,9.3s-8.5-2.2-9.3-6.6s2.2-8.5,6.6-9.3c0.9-0.2,1.8-0.2,2.7,0
		C40.5,6.8,43.1,9.5,43.7,12.8z"/>
	<path class="st2" d="M40,13.2c0.6,2.3-0.9,4.6-3.1,5.1c-0.7,0.2-1.3,0.2-2,0c-1.6-0.4-2.8-1.6-3.2-3.2c-0.6-2.3,0.9-4.6,3.1-5.1
		c0.7-0.2,1.3-0.2,2,0C38.4,10.4,39.6,11.6,40,13.2z"/>
	<path d="M38.2,14.5c0,0.8-0.6,1.4-1.4,1.4c-0.8,0-1.4-0.6-1.4-1.4c0-0.8,0.6-1.4,1.4-1.4c0,0,0,0,0,0
		C37.6,13.1,38.2,13.7,38.2,14.5z"/>
	<path class="st3" d="M15.2,90c0,0,2.3-8.8,7.2-9.4S37.1,83,40.3,81c3.2-2,5.3-10.3,10.8-11.1c5.5-0.8,11.1,4.6,14.6,4.4
		c3.5-0.2,8.8-7.5,12.3-3.8s2.8,13.3,2.8,13.3l5.4,10.4c0,0-3.3,13.8-30.7,15.4c-8.5,0.7-17.1,0.2-25.4-1.5
		c-12.1-2.2-17.8-5.4-17.8-5.4L15.2,90z"/>
	<path class="st1" d="M11.2,43.5c-2.9,2.2-7.3-5.4-7.7-13.1c-0.3-5,0.2-10,1.5-14.9l2.2,1c0,0-1.9,3.3-1.5,13.5
		C5.9,36.5,13.4,41.8,11.2,43.5z"/>
	<path class="st1" d="M13.9,2.6c3.3,3,3.5,8.1,0.5,11.3s-8.1,3.5-11.3,0.5S-0.4,6.4,2.6,3.1c0.6-0.7,1.3-1.2,2.1-1.7
		C7.7-0.1,11.4,0.3,13.9,2.6z"/>
	<path class="st2" d="M11.9,4.6c2.1,1.9,2.3,5.1,0.5,7.3s-5.1,2.3-7.3,0.5S2.8,7.2,4.6,5.1c0.4-0.5,1-0.9,1.6-1.2
		C8.1,3,10.3,3.2,11.9,4.6z"/>
	<path d="M10.6,7.3c0.5,0.6,0.4,1.5-0.2,1.9C9.8,9.7,8.9,9.6,8.4,9C8,8.4,8.1,7.5,8.7,7c0,0,0,0,0,0C9.3,6.6,10.1,6.7,10.6,7.3
		C10.6,7.3,10.6,7.3,10.6,7.3z"/>
	<polygon class="st4" points="22.5,80.7 29.6,91.9 29.6,80.3 36.4,90.6 37.2,81.5 43.4,89.1 43.6,75.8 38.7,81.4 34.1,81.4 	"/>
	<polygon class="st4" points="75.1,69.7 71.8,82.3 69,73.3 66.6,83.6 62.4,73.7 59.5,85.2 56.5,70.6 63.5,73.4 70.6,72.5 	"/>
	<polyline class="st4" points="65.8,108.1 64.1,92.7 70.2,105.6 72,90.8 76.3,104.4 	"/>
	<polyline class="st4" points="41.6,109.3 40.3,100 48,108.6 48.2,96.3 55.7,108.9 	"/>
	<path class="st5" d="M86.1,92.4c0,0-4.4-4.7-5.6-9.8s0.9-10.5-3.3-12.6c-4.2-2.1-7.5,5.4-13.2,4.2C58.4,73,57.8,68.8,50,70
		S44,80.8,39,81.4s-12.3-3.3-18.3,0s-8.2,20.5-8.2,20.5s7.2,7.1,26.4,7.5s25.1,0.8,38.5-6C88.4,97.7,86.1,92.4,86.1,92.4z"/>
</g>
</svg>
