<svg xmlns="http://www.w3.org/2000/svg" viewBox="0 0 141.91 151.07"><defs><style>.cls-1{opacity:0.15;}.cls-2{fill:#bcd400;}.cls-3{fill:#ec6514;stroke:#ec6514;}.cls-3,.cls-4{stroke-miterlimit:10;}.cls-4{fill:#da2877;stroke:#da2877;}.cls-5{fill:#29627e;}.cls-6{fill:#fff;}.cls-7{fill:none;stroke:#da2677;stroke-linecap:round;stroke-linejoin:round;stroke-width:4px;}</style></defs><g id="BAD"><path class="cls-2" d="M17.09,49.29C.4,50.29-.85,117.83,12.2,134.42c14,17.82,78.81,20.09,99.68,1,13.33-12.21,12.21-84.88-6-85.62-16.13-.66-13.07,26-23.06,33.82-6.34,5-33.3,5.66-41.24.33C31.71,77.27,33.76,48.29,17.09,49.29Z"/><path class="cls-3" d="M104,56.25c-4.92,0-3.26-12,2.78-20.52A62.57,62.57,0,0,1,120.86,21l1.55,2.86s-4.72,2-12.89,13.19C104.24,44.32,107.89,56.25,104,56.25Z"/><path class="cls-3" d="M141.25,14.67a10.93,10.93,0,1,1-8.92-8.92A10.94,10.94,0,0,1,141.25,14.67Z"/><path class="cls-4" d="M137,15.23a6.63,6.63,0,1,1-5.2-5.21A6.64,6.64,0,0,1,137,15.23Z"/><path d="M133.74,16.9A1.87,1.87,0,1,1,131.87,15,1.87,1.87,0,0,1,133.74,16.9Z"/><path class="cls-3" d="M22,58.85c-4.91,0-3.26-12,2.78-20.52A62.78,62.78,0,0,1,39,23.63l1.55,2.86s-4.73,2-12.9,13.18C22.32,46.93,26,58.85,22,58.85Z"/><path class="cls-3" d="M59.34,17.28a10.93,10.93,0,1,1-8.93-8.93A10.94,10.94,0,0,1,59.34,17.28Z"/><path class="cls-4" d="M54.21,17.81a5.8,5.8,0,0,1-7,7,5.74,5.74,0,0,1-4.32-4.32,5.8,5.8,0,0,1,7-7A5.74,5.74,0,0,1,54.21,17.81Z"/><path d="M51.82,19.51A1.87,1.87,0,1,1,50,17.64,1.86,1.86,0,0,1,51.82,19.51Z"/><path class="cls-5" d="M20.57,122.39s3.16-12,9.85-12.77,19.88,3.16,24.28.44S61.94,96.1,69.45,95s15.12,6.21,19.92,6,12-10.15,16.75-5.16S110,113.94,110,113.94l7.4,14.1s-4.48,18.76-41.77,21a127.52,127.52,0,0,1-34.62-2c-16.44-3-24.18-7.29-24.18-7.29Z"/><path class="cls-3" d="M15,59.07C11.08,62.1,5,51.66,4.53,41.18A62.56,62.56,0,0,1,6.61,20.9l3,1.3S7.07,26.65,7.54,40.53C7.84,49.5,18.06,56.66,15,59.07Z"/><path class="cls-3" d="M18.78,3.34A10.93,10.93,0,1,1,6.25,1.81,10.95,10.95,0,0,1,18.78,3.34Z"/><path class="cls-4" d="M16,6.11a7,7,0,1,1-7.74-1A7,7,0,0,1,16,6.11Z"/><path d="M14.23,9.73a1.87,1.87,0,1,1-2.62-.32A1.86,1.86,0,0,1,14.23,9.73Z"/><polygon class="cls-6" points="30.42 109.62 40.16 124.89 40.16 109.19 49.43 123.14 50.46 110.73 58.95 121.13 59.14 103 52.57 110.59 46.23 110.59 30.42 109.62"/><polygon class="cls-6" points="102.06 94.76 97.55 111.86 93.78 99.57 90.53 113.62 84.72 100.2 80.76 115.87 76.69 95.87 86.28 99.71 96 98.55 102.06 94.76"/><polyline class="cls-6" points="89.37 146.95 87.02 126 95.34 143.59 97.8 123.5 103.66 141.98"/><polyline class="cls-6" points="56.45 148.66 54.7 135.92 65.14 147.73 65.47 130.91 75.59 148.11"/><path class="cls-7" d="M117.1,125.62s-6-6.4-7.61-13.33S110.71,98,105,95.18s-10.18,7.33-17.92,5.71-8.56-7.34-19.15-5.71-8.14,14.67-15.07,15.48-16.7-4.48-24.85,0S16.79,138.6,16.79,138.6s9.87,9.6,36,10.19,34.22,1.13,52.37-8.23C120.2,132.77,117.1,125.62,117.1,125.62Z"/></g></svg>