<?xml version="1.0" encoding="utf-8"?>
<!-- Generator: Adobe Illustrator 24.1.0, SVG Export Plug-In . SVG Version: 6.00 Build 0)  -->
<svg version="1.1" id="Layer_1" xmlns="http://www.w3.org/2000/svg" xmlns:xlink="http://www.w3.org/1999/xlink" x="0px" y="0px"
	 viewBox="0 0 10.9 12.9" style="enable-background:new 0 0 10.9 12.9;" xml:space="preserve">
<style type="text/css">
	.st0{fill:#7CBE28;}
	.st1{fill:#BC2E2C;}
	.st2{fill:#743246;}
	.st3{fill:#61BFA6;}
	.st4{fill:#F4D62B;}
	.st5{fill:none;stroke:#152C52;stroke-width:0.137;stroke-linecap:round;stroke-linejoin:round;}
</style>
<g id="BAD">
	<path class="st0" d="M4,11.7c1-1-0.2-3,1.5-3.6c1.4-0.6,1.7,1.1,3,1.3c1.3,0.2,2.1-1.3,1.3-2.3s-2.5-0.8-4-1.9
		C3.9,3.9,5.5,1.8,3.5,0.4C2.3-0.4-0.4-0.2,0,2.4c0.4,2.2,2,1.6,2.2,3.3c0.2,2-2.2,3.1-1.9,5C0.7,12.7,2.8,13,4,11.7z"/>
	<path class="st1" d="M3.6,4.8C2.8,5.1,3.5,5.7,3,6.3C2.6,6.9,2,8,2.9,8.1c0.4,0.1,0.6-0.5,1.2-0.4c0.8,0.1,0.5-0.7,1-0.8
		c0.7-0.1,1-0.6,0.7-1C5.3,5.4,4.9,6.1,4.6,5.4C4.3,4.8,4,4.6,3.6,4.8z"/>
	<polygon class="st2" points="3.7,6.6 3.3,6.2 3.7,6.2 3.4,5.2 3.8,5.7 3.8,5 4.1,5.7 4.4,5.4 4.3,5.9 4.8,5.8 4.5,6.2 5.6,6.3 
		4.7,6.6 4.9,6.9 4.3,6.7 4.5,7.5 4,6.9 3.7,7.7 3.7,6.9 2.9,7.7 3.5,6.9 2.8,7 	"/>
	<path class="st3" d="M8.4,8.3l0.3-0.9C8.5,7.2,8.1,7.1,7.9,7.3S7.6,7.9,7.8,8.1C7.9,8.3,8.2,8.4,8.4,8.3z"/>
	<path d="M8,7.8c0-0.1,0-0.1,0.1-0.2c0.1,0,0.1,0,0.2,0.1c0,0.1,0,0.1-0.1,0.2c0,0,0,0,0,0C8.1,7.9,8,7.9,8,7.8C8,7.8,8,7.8,8,7.8z"
		/>
	<path class="st4" d="M8.7,7.3L7.8,8.2C7.9,8.2,8,8.3,8.1,8.3c0.1,0,0.2,0,0.3,0L8.7,7.3z"/>
	<polyline class="st5" points="9,7.3 8.7,7.3 8.2,8.9 	"/>
	<path class="st3" d="M1.9,10.7L3.1,11c0.3-0.3,0.3-0.7,0-1c-0.3-0.3-0.7-0.3-1,0C1.9,10.1,1.8,10.4,1.9,10.7z"/>
	<path d="M2.5,10.2c0.1,0,0.2,0,0.2,0.1c0,0.1,0,0.2-0.1,0.2c-0.1,0-0.2,0-0.2-0.1c0,0,0,0,0,0C2.3,10.3,2.4,10.2,2.5,10.2z"/>
	<path class="st4" d="M3.2,11L2,10c-0.1,0.1-0.1,0.2-0.2,0.3c0,0.2,0,0.4,0,0.4L3.2,11z"/>
	<polyline class="st5" points="3.2,11.4 3.2,11 1.1,10.6 	"/>
	<path class="st3" d="M2.5,1.4l-1,0.9C1.6,2.8,2,3.1,2.4,3s0.7-0.5,0.7-0.9C3,1.8,2.8,1.5,2.5,1.4z"/>
	<path d="M2.6,2.3c0,0.1-0.1,0.2-0.2,0.1c-0.1,0-0.2-0.1-0.1-0.2c0-0.1,0.1-0.2,0.2-0.1c0,0,0,0,0,0C2.6,2.1,2.6,2.2,2.6,2.3z"/>
	<path class="st4" d="M1.4,2.4L3.1,2C3,1.9,3,1.7,2.9,1.6C2.7,1.5,2.5,1.4,2.5,1.4L1.4,2.4z"/>
	<polyline class="st5" points="1,2.1 1.4,2.4 3.2,0.8 	"/>
</g>
</svg>
