<svg xmlns="http://www.w3.org/2000/svg" viewBox="0 0 146.94 182.15"><defs><style>.cls-1{opacity:0.15;}.cls-2{fill:#7cbe28;}.cls-3{fill:#bc2e2c;}.cls-4{fill:#743246;}.cls-5{fill:#61bfa6;}.cls-6{fill:#f4d62b;}.cls-7{fill:none;stroke:#152c52;stroke-linecap:round;stroke-linejoin:round;stroke-width:2px;}</style></defs><g id="BAD"><path class="cls-2" d="M58.45,170.8c14.82-15.18-2.65-43.12,21.31-52.87,21-8.53,24.55,16.16,43.75,19.65,18.37,3.34,30.68-19.67,18.63-34.21S106,92.26,84.47,76.23c-26.81-20-4.77-50.3-33.27-70.09C33.85-5.92-5.45-2.19.63,35.25c5.3,32.57,29.74,23,32.29,48.16,3,29.67-31.47,45-27.32,72.91C10,186,40.58,189.1,58.45,170.8Z"/><path class="cls-3" d="M52.06,70.49C40.89,75,51.75,83,44.34,92.24c-6.44,8-15.68,24.18-1.78,26.35,6.09,1,8.29-6.69,17.68-5.41,11.66,1.6,7.65-10,14.19-11.22,9.68-1.78,15-8.31,9.93-15-6.29-8.33-12.23,1.43-17.08-8.27C62.8,69.74,58.66,67.82,52.06,70.49Z"/><polygon class="cls-4" points="53.62 96.46 47.96 90.43 54.14 90.56 49.42 75.47 55.97 83.71 55.86 72.37 60.55 83.56 64.82 78.51 63.51 86.25 70.4 84.05 66.38 90.41 82.48 91.24 68.66 95.86 71.16 100.14 62.68 97.91 65.63 110.12 57.87 100.02 53.41 111.94 53.41 101.38 42.37 112.1 51.16 100.32 40.83 101.72 53.62 96.46"/><path class="cls-5" d="M122.59,121.22l3.94-13a8.21,8.21,0,1,0-3.94,13Z"/><path d="M117,114.25a1.83,1.83,0,1,1,2.32,1.12A1.82,1.82,0,0,1,117,114.25Z"/><path class="cls-6" d="M127.21,106.94l-12.71,12.4a13,13,0,0,0,3.72,2.25,10.77,10.77,0,0,0,4.54,0Z"/><polyline class="cls-7" points="131.95 107.24 127.21 106.94 120.03 130.57"/><path class="cls-5" d="M27.69,156.49l17.06,3.66a10.54,10.54,0,1,0-17.06-3.66Z"/><path d="M36,148.53a2.35,2.35,0,1,1-1.18,3.08A2.34,2.34,0,0,1,36,148.53Z"/><path class="cls-6" d="M46.45,160.89,29.23,145.94a16.89,16.89,0,0,0-2.48,5c-.56,2.34.48,5.82.48,5.82Z"/><polyline class="cls-7" points="46.57 166.98 46.45 160.89 15.45 154.21"/><path class="cls-5" d="M36.25,20.74l-14.42,13a11.74,11.74,0,1,0,14.42-13Z"/><path d="M38,33.44a2.61,2.61,0,1,1-2-3.08A2.6,2.6,0,0,1,38,33.44Z"/><path class="cls-6" d="M20.05,34.82,44.77,29a19,19,0,0,0-2.89-5.5c-1.76-2-5.57-3.35-5.57-3.35Z"/><polyline class="cls-7" points="14.47 30.96 20.05 34.82 46.28 11.17"/></g></svg>