<svg xmlns="http://www.w3.org/2000/svg" viewBox="0 0 342 342"><defs><style>.cls-1{fill:#f39b1f;}.cls-2{fill:none;}</style></defs><g id="Layer_2" data-name="Layer 2"><g id="Layer_1-2" data-name="Layer 1"><path class="cls-1" d="M242.51,108,210.8,221.35a32.54,32.54,0,0,1-62.68-17.54l31.34-112a124,124,0,1,0,63,16.23Z"/><path class="cls-1" d="M110.88,107.7H295.4a16.24,16.24,0,0,1,16.24,16.24v5.23a16.24,16.24,0,0,1-16.24,16.24H115.62a21,21,0,0,1-21-21v-.49a16.24,16.24,0,0,1,16.24-16.24Z" transform="translate(26.84 288.43) rotate(-74.48)"/><rect class="cls-1" x="208.88" y="21.04" width="131.56" height="33.98" rx="15.84"/><path class="cls-1" d="M122.33,71.59a8.32,8.32,0,0,0,8.37-.07l45.84-27.17a8.33,8.33,0,0,0,0-14.34L130.7,2.84A8.33,8.33,0,0,0,118.12,10V22.84l-5.39.79-7,1.08c-.88.16-2,.45-3.28.78l-5.3,1.36c-1.49.38-3,.77-4.54,1.21l-.53.18L81,32.31c-.26.09-.51.2-.75.31L69.21,38l-.48.26a145.44,145.44,0,0,0-29.81,22.4,144.43,144.43,0,0,0-22,29.46c-.1.18-.19.36-.28.54l-5.89,12.5c-.11.23-.2.46-.29.69l-3.52,9.65c-.06.16-.11.33-.16.5-.44,1.48-.81,3-1.27,4.72l-1.29,5c-.33,1.26-.64,2.49-.89,3.9l-1.38,9a8.9,8.9,0,0,0-.09,1.26,8.34,8.34,0,0,0,8.29,8.33l13.59.06A8.32,8.32,0,0,0,32,139.18l.81-5.4a36.83,36.83,0,0,1,.86-3.76c.16-.56,1-3.79,1-3.79.28-1.13.56-2.28.82-3.16l.2-.64,3.44-9.2,4.25-8.74a115.46,115.46,0,0,1,16.9-22.57l.25-.25a116,116,0,0,1,22.71-17L84.56,64l9.1-4.26,8-2.9c1.07-.31,2.14-.57,3.17-.83l13.27-3.26V64.35A8.33,8.33,0,0,0,122.33,71.59Z"/><rect class="cls-2" width="342" height="342"/></g></g></svg>