<svg width="1097" height="504" viewBox="0 0 1097 504" fill="none" xmlns="http://www.w3.org/2000/svg">
<path d="M377.309 333.195L367.457 382.597C367.457 382.597 386.426 385.63 398.577 385.63C409.977 385.63 419.485 385.63 427.46 384.88C425.897 392.089 424.802 399.314 423.285 405.772C411.57 411.507 398.703 414.497 385.66 414.514C335.883 414.514 324.858 385.63 332.49 348.02C340.856 305.453 369.349 292.912 398.608 292.912C444.975 292.912 472.735 314.389 479.569 318.189L503.136 248.646C487.497 240.28 452.2 219.193 391.399 219.193C337.431 219.193 270.547 243.135 249.279 331.679C224.946 437.69 294.114 485.199 363.266 485.199C442.317 485.199 480.318 454.407 484.868 452.515C484.868 439.207 495.127 370.821 508.435 333.195H377.309Z" fill="white" fill-opacity="0.2"/>
<path d="M715.271 353.191C708.046 388.158 697.412 412.476 653.328 412.476C607.352 412.476 609.244 388.158 617.235 349.767C644.211 221.705 643.07 229.353 645.728 220.955H559.468C558.326 225.897 559.843 228.555 533.634 354.333C508.925 469.852 589.931 483.911 646.494 483.911C713.363 483.911 772.648 469.837 797.356 354.333C823.941 228.93 825.505 225.897 826.615 220.955H742.622C741.496 225.897 742.622 225.897 715.271 353.191Z" fill="white" fill-opacity="0.2"/>
<path d="M857.032 222.096L841.065 295.424H914.033L902.633 350.157C890.842 406.768 877.612 460.735 873.749 479.344H960.385C964.185 460.735 974.459 406.768 986.235 350.157C990.41 330.015 994.586 311.766 998.386 295.424H1070.96L1086.6 222.096H857.032Z" fill="white" fill-opacity="0.2"/>
<path d="M21.2799 143.863C21.2799 143.863 30.3349 143.079 43.5115 143.079C55.5171 143.079 64.5721 143.863 64.5721 143.863C71.6444 132.018 89.9417 90.7647 99.5743 64.114C98.4034 90.373 99.184 130.247 100.964 143.863C100.964 143.863 110.799 143.079 123.976 143.079C135.982 143.079 146.395 143.863 146.395 143.863C162.538 112.872 176.058 88.5869 191.67 60.5574C193.824 56.6091 195.604 50.8747 195.401 47.5218C195.401 38.6382 186.549 34.0946 174.949 34.0946C166.878 34.0946 151.141 36.2724 151.141 36.2724L145.224 63.3932L157.417 63.0015C148.362 80.8941 140.103 97.0788 130.658 116.82C128.847 91.1564 128.301 59.5703 128.691 35.677H84.2433C75.1883 58.3796 62.0117 88.7906 50.0061 113.859C48.4449 94.713 47.2584 81.6775 44.8853 59.5703C43.1212 42.7902 40.9667 34.0946 26.6036 34.0946C19.9363 34.3535 13.2953 35.0813 6.72948 36.2724L0.828125 63.3932L11.8502 63.0015C14.9883 90.0284 18.1419 113.53 21.2799 143.863Z" fill="#F3A5A5"/>
<path d="M272.464 65.0218C279.184 65.0218 284.13 67.1825 284.13 75.0168C284.13 82.8511 278.98 95.9705 275.023 112.432C272.056 124.961 271.663 145.526 296.598 145.526C304.449 145.526 316.774 141.609 318.58 140.054L324.311 114.779C321.798 115.721 319.146 116.247 316.46 116.334C312.896 116.334 311.75 114.375 311.75 111.826C311.75 106.339 316.884 93.1726 321.642 70.6955C327.577 42.4826 316.099 32.3011 295.326 32.3011C277.913 32.3011 262.478 42.094 252.79 52.5087C256.338 36.6379 258.317 26.845 258.317 21.9486C258.207 12.7308 254.847 0 234.466 0C227.535 0.284716 220.672 1.47108 214.054 3.52856L208.323 28.7881C210.505 28.7881 216.032 28.6015 221.779 28.2129L197.08 143.567C209.139 142.992 221.418 142.992 233.477 143.567C233.477 142.013 241.799 104.396 248.315 72.8717C254.423 69.1411 262.76 65.0218 272.464 65.0218Z" fill="#F3A5A5"/>
<path d="M371.032 145.526C379.815 145.529 388.473 143.437 396.281 139.424C404.089 135.412 410.821 129.595 415.915 122.459C415.727 134.29 420.278 145.526 437.886 145.526C447.177 145.526 454.694 142.568 458.288 140.017L464.016 114.572C461.488 115.461 458.846 115.988 456.169 116.137C452.811 116.137 450.833 114.165 450.833 111.598C450.833 107.858 454.192 93.461 457.362 78.7351C465.067 43.0394 438.969 31.5999 412.462 31.5999C384.779 31.5999 361.647 37.5152 351.556 41.8501L355.416 66.3097C368.065 63.5554 381.907 60.5821 399.704 60.5821C418.881 60.5821 422.836 65.2768 422.836 73.0075C422.836 75.7774 421.659 81.4894 419.085 92.7255C413.153 84.0089 400.755 75.6992 381.515 75.6992C358.775 75.6992 342.752 84.3688 338.593 106.059C334.842 125.213 341.12 145.526 371.032 145.526ZM374.986 108.86C375.771 103.523 379.333 98.4061 390.209 98.4061C406.232 98.4061 415.319 105.104 417.108 106.231C414.534 111.16 401.681 121.019 387.29 121.019C376.179 121.082 374.202 114.368 374.986 108.86Z" fill="#F3A5A5"/>
<path d="M564.05 129.396L569.378 101.515C564.05 106.065 547.267 114.161 534.433 114.161C525.031 114.161 521.991 110.615 524.561 98.1571L532.051 61.7718L578.059 62.1641L583.763 35.6792C583.763 35.6792 569.346 33.31 538.319 32.7138C541.093 19.8637 544.055 7.40574 544.446 5.82104L508.311 14.529L502.78 34.6908C494.421 35.8893 486.169 37.7412 478.099 40.2294L473.163 63.5605C476.297 63.5605 484.226 62.7603 496.261 62.368C493.691 74.622 491.56 83.9262 488.755 96.8862C483.819 120.029 484.226 145.525 523.229 145.525C542.143 145.604 560.101 134.731 564.05 129.396Z" fill="#F3A5A5"/>
<path d="M645.3 9.14734H605.853C605.853 9.14734 598.71 45.7367 589.584 77.7246L608.465 82.326C626.072 64.3328 642.719 20.9365 645.3 9.14734Z" fill="#F3A5A5"/>
<path d="M690.18 101.851C719.943 108.062 723.531 108.885 723.531 111.634C723.531 115.159 721.964 118.28 691.95 118.28C682.37 118.478 672.792 117.824 663.33 116.324C665.1 107.519 666.291 101.059 666.463 100.081H641.399L639.238 105.174C629.369 128.467 642.59 144.694 687.392 144.694C736.345 144.694 748.986 131.79 752.934 113.979C758.26 90.2977 738.522 83.2633 709.698 76.2133C684.823 70.1572 677.335 68.7752 677.335 63.4955C677.335 59.5823 681.267 57.8276 702.587 57.8276C711.513 57.8866 720.42 58.6708 729.217 60.1724C728.042 67.6105 727.651 73.0921 727.447 73.8685L753.31 76.2133L756.866 65.8403C763.57 46.088 748.563 31.5999 704.952 31.5999C677.711 31.5999 653.618 38.6498 648.684 58.9922C643.984 78.8066 656.218 94.8476 690.18 101.851Z" fill="#F3A5A5"/>
<path d="M893.168 121.69C893.372 131.731 897.496 145.526 916.993 145.526C927.819 145.526 935.49 141.584 937.302 140.02L943.004 114.589C940.537 115.646 937.877 116.179 935.193 116.153C931.053 116.153 930.662 114.182 930.662 111.617C930.662 102.749 941.692 62.3492 941.692 51.698C941.692 47.1779 939.926 31.5999 917.68 31.5999C910.759 31.6342 903.894 32.8344 897.371 35.1503L891.591 60.5818C893.762 60.5818 899.277 60.3941 904.979 60.0031L895.934 103.546C888.45 108.473 878.202 112.931 869.376 112.931C863.876 112.931 860.002 111.554 860.002 105.111C860.002 96.2423 869.376 65.8996 869.376 52.4956C869.376 43.6274 865.251 31.5999 845.942 31.5999C839.021 31.6342 832.156 32.8344 825.633 35.1503L819.931 60.5662C822.087 60.5662 827.601 60.3785 833.319 59.9875L823.071 107.285C817.166 135.657 829.57 145.51 850.832 145.51C867.579 145.526 883.529 133.514 893.168 121.69Z" fill="#F3A5A5"/>
<path d="M981.739 182.115C981.942 180.739 987.641 154.145 993.355 126.174C998.273 135.43 1010.08 145.467 1029.36 145.467C1054.54 145.467 1075.38 128.723 1082.86 92.669C1092.9 44.4359 1068.73 32.194 1047.06 32.194C1023.07 32.194 1010.26 48.157 1004.77 60.7586C1005.16 53.6604 1007.33 31.5999 984.471 31.5999C976.993 31.5999 965.393 34.3672 964.175 35.1489L958.477 60.5553C960.631 60.5553 966.142 60.3677 971.841 59.9768L946.33 182.115C958.126 181.521 969.944 181.521 981.739 182.115ZM1032.11 60.3677C1047.06 60.3677 1051.98 69.4202 1048.05 88.3382C1043.72 109.617 1033.99 116.903 1021.5 116.903C1012.65 116.903 1001.21 113.166 996.524 110.008C1005.36 74.7516 1016.76 60.3677 1032.11 60.3677Z" fill="#F3A5A5"/>
<path d="M357.778 331.309L347.926 380.711C347.926 380.711 366.895 383.744 379.046 383.744C390.446 383.744 399.954 383.744 407.93 382.994C406.366 390.203 405.271 397.428 403.754 403.886C392.04 409.622 379.172 412.611 366.129 412.628C316.352 412.628 305.328 383.744 312.959 346.134C321.325 303.567 349.818 291.026 379.077 291.026C425.444 291.026 457.362 305.851 464.196 309.651L487.763 240.108C472.124 231.741 432.669 217.307 371.868 217.307C317.901 217.307 251.016 241.249 229.748 329.793C205.415 435.804 274.583 483.313 343.735 483.313C422.786 483.313 460.787 452.521 465.337 450.629C465.337 437.321 475.596 368.935 488.904 331.309H357.778V331.309Z" fill="#F3A5A5"/>
<path d="M694.077 352.968C686.853 387.935 676.219 412.253 632.134 412.253C586.158 412.253 588.05 387.935 596.042 349.544C623.017 221.483 621.876 229.13 624.534 220.732H538.274C537.133 225.674 538.649 228.332 512.44 354.11C487.731 469.629 568.737 483.688 625.301 483.688C692.17 483.688 751.454 469.614 776.162 354.11C802.747 228.707 804.311 225.674 805.421 220.732H721.429C720.303 225.674 721.429 225.674 694.077 352.968Z" fill="#F3A5A5"/>
<path d="M835.838 221.873L819.871 295.201H892.839L881.439 349.935C869.647 406.545 856.418 460.512 852.555 479.122H939.191C942.991 460.512 953.265 406.545 965.04 349.935C969.216 329.793 973.391 311.543 977.191 295.201H1049.77L1065.41 221.873H835.838Z" fill="#F3A5A5"/>
<path d="M111.633 227.362C111.633 231.46 114.307 237.856 123.268 237.856C132.229 237.856 134.809 231.46 134.809 227.362C134.809 223.265 132.041 217.62 123.268 217.62C114.495 217.62 111.633 223.375 111.633 227.362Z" fill="#F3A5A5"/>
<path d="M129.852 279.578C128.645 280.09 127.346 280.345 126.036 280.329C124.034 280.329 123.847 279.375 123.847 278.14C123.847 273.855 128.992 255.621 128.992 250.476C128.992 247.708 129.085 240.749 118.311 240.749C114.663 240.89 111.046 241.467 107.536 242.469L104.768 254.761C105.816 254.761 108.474 254.667 111.242 254.479L106.097 278.421C104.768 285.396 103.814 294.607 117.263 294.607C120.73 294.731 124.153 293.804 127.084 291.948L129.852 279.578Z" fill="#F3A5A5"/>
<path d="M193.296 278.14C193.296 275.466 195.767 269.085 197.987 258.107C200.849 244.377 194.171 239.341 185.007 239.341C180.984 239.431 177.029 240.4 173.42 242.18C169.811 243.961 166.635 246.509 164.115 249.647C164.021 245.159 162.207 239.341 152.668 239.341C149.338 239.525 146.041 240.102 142.847 241.061L140.079 253.369C141.127 253.369 143.801 253.275 146.569 253.087C144.176 264.441 138.171 292.48 137.968 293.528C143.801 293.246 149.712 293.246 155.529 293.528C155.717 292.48 160.581 269.492 162.676 259.124C166.133 256.8 170.165 255.48 174.327 255.308C177.564 255.308 179.956 256.356 179.956 260.171C179.956 263.987 177.47 270.383 175.562 278.39C174.139 284.504 173.998 294.513 185.961 294.513C189.635 294.363 193.239 293.458 196.548 291.854L199.316 279.547C198.094 280.004 196.805 280.258 195.501 280.298C195.207 280.332 194.909 280.299 194.63 280.204C194.35 280.108 194.095 279.951 193.884 279.744C193.673 279.537 193.51 279.286 193.408 279.008C193.307 278.731 193.268 278.434 193.296 278.14V278.14Z" fill="#F3A5A5"/>
<path d="M35.5847 314.451L18.1168 318.658L15.4584 328.385C11.4166 328.959 7.42674 329.854 3.52642 331.059L1.14941 342.319C2.71323 342.319 6.48204 341.928 12.2994 341.74C11.064 347.651 10.0163 352.139 8.67138 358.442C6.29438 369.592 6.48204 381.899 25.373 381.899C34.4431 381.899 43.1223 376.66 45.0302 374.08L47.6105 360.631C45.0302 362.82 36.914 366.73 30.7212 366.73C26.1392 366.73 24.7005 365.025 25.9516 359.005L29.5796 341.521L51.8015 341.709L54.5695 328.917C47.3091 327.98 39.9966 327.505 32.676 327.494C33.9583 321.191 35.397 315.218 35.5847 314.451Z" fill="#F3A5A5"/>
<path d="M110.46 365.401C110.46 362.727 112.947 356.331 115.245 345.368C118.107 331.622 112.571 326.602 102.547 326.602C94.1495 326.602 86.7057 331.372 82.0299 336.439C83.7501 328.698 84.7041 323.928 84.7041 321.551C84.7041 317.063 83.1402 310.87 73.2569 310.87C69.9234 311.012 66.6223 311.585 63.4361 312.575L60.6682 324.882C61.7159 324.882 64.39 324.788 67.158 324.601L55.2261 380.789C61.0435 380.507 66.9704 380.507 72.7878 380.789C72.7878 380.022 76.7911 361.71 79.9344 346.385C83.3899 344.059 87.4231 342.738 91.5849 342.569C94.822 342.569 97.199 343.617 97.199 347.432C97.199 351.248 94.7281 357.644 92.8203 365.651C91.3816 371.765 91.2565 381.774 103.22 381.774C106.896 381.628 110.502 380.717 113.807 379.1L116.575 366.793C115.355 367.262 114.065 367.521 112.759 367.559C112.459 367.605 112.152 367.582 111.861 367.493C111.571 367.403 111.305 367.248 111.084 367.04C110.862 366.832 110.691 366.576 110.583 366.292C110.475 366.008 110.433 365.703 110.46 365.401Z" fill="#F3A5A5"/>
<path d="M157.687 358.629C169.901 358.629 179.722 354.516 179.722 342.694C179.722 334.015 171.903 326.477 153.684 326.477C139.75 326.477 126.583 334.202 123.346 350.325C119.906 367.308 130.68 381.899 148.148 381.899C164.084 381.899 171.418 375.988 174.186 373.032L176.86 360.349C170.334 365.433 162.284 368.165 154.013 368.106C141.893 368.106 138.75 362.758 139.328 355.595C145.245 357.589 151.444 358.613 157.687 358.629V358.629ZM155.967 338.3C161.597 338.3 164.74 340.114 164.74 343.46C164.74 346.807 161.832 348.699 147.382 349.34C144.895 349.434 142.518 349.528 140.517 349.715C142.8 341.834 147.961 338.3 155.967 338.3Z" fill="#F3A5A5"/>
</svg>
