<svg xmlns="http://www.w3.org/2000/svg" viewBox="0 0 340.01 340.36"><defs><style>.cls-1{fill:#299ed9;}.cls-2{fill:#31a2d1;}</style></defs><g id="Layer_2" data-name="Layer 2"><g id="Layer_1-2" data-name="Layer 1"><path class="cls-1" d="M335.12,176.05,201.54,12.59l-.1-.11-.11-.14c-.12-.14-.26-.27-.38-.41a20.68,20.68,0,0,0-1.49-1.63c-.24-.24-.51-.47-.76-.7-.45-.41-.89-.83-1.38-1.22s-.79-.6-1.19-.9-.77-.57-1.18-.85-1.13-.71-1.72-1c-.3-.18-.58-.37-.89-.54-.74-.4-1.51-.77-2.29-1.13l-.51-.25-.07,0c-.83-.36-1.68-.69-2.53-1l-.57-.22c-.61-.21-1.23-.38-1.85-.56A45,45,0,0,0,176.83.29h-.07c-.83-.1-1.66-.15-2.5-.2-.29,0-.59,0-.89-.06-.61,0-1.21,0-1.82,0S170.49,0,170,0s-.77,0-1.15.07c-.75,0-1.5.08-2.24.16-.15,0-.29,0-.43.06a44.6,44.6,0,0,0-7,1.38c-.74.2-1.47.4-2.18.64l-.5.19c-.89.31-1.76.64-2.61,1l-.08,0-.52.25c-.78.36-1.55.72-2.29,1.12-.32.17-.61.36-.92.53-.58.34-1.16.67-1.71,1s-.81.57-1.22.86-.8.56-1.17.86-1,.83-1.44,1.25c-.24.22-.5.43-.73.65-.57.55-1.08,1.12-1.58,1.7-.1.12-.22.22-.32.34l-.1.11a1.83,1.83,0,0,1-.13.16L5.07,175.84c-10,11.93-4.77,27.5,11.61,34.76a44.68,44.68,0,0,0,18,3.69c11.72,0,23.17-4.32,29.71-12.15l83-110.93s20-26.55,44.48-.06l83.51,110.78c6.5,7.95,18,12.36,29.88,12.36A44.9,44.9,0,0,0,323,210.73C339.52,203.58,344.93,188.05,335.12,176.05Z"/><path class="cls-2" d="M280.09,301,188.94,178.07a24.67,24.67,0,0,0-39.63,0L58.15,301C46.08,317.27,57.7,340.36,78,340.36h182.3C280.54,340.36,292.16,317.27,280.09,301Zm-77.31-36.55a8.15,8.15,0,0,1-7.08,4.11H183.86V320a8.15,8.15,0,0,1-8.16,8.15H162.54a8.15,8.15,0,0,1-8.16-8.15V268.56H142.54a8.15,8.15,0,0,1-7-12.31l26.58-44.84a8.14,8.14,0,0,1,14,0l26.58,44.84a8.16,8.16,0,0,1,.07,8.2Z"/></g></g></svg>